# xmcd
#
# Track frame offsets:
#	150
#	22511
#	41614
#	70063
#	87598
#	109880
#	134536
#	149660
#	167816
#	185974
#	202591
#	221019
#	233832
#	252432
#	274199
#
# Disc length: 3880 seconds
#
# Revision: 8
# Processed by: cddbd v1.5.2PL0 Copyright (c) Steve Scherf et al.
# Submitted via: EasyCDDAExtractor 15.3.0.1
#
DISCID=e10f260f
DTITLE=Madonna - Madame X (Limited Deluxe Edition) - CD 1
DYEAR=2019
DGENRE=Pop
TTITLE0=Medellin (Madonna and Maluma)
TTITLE1=Dark Ballet
TTITLE2=God Control
TTITLE3=Future (Madonna and Quavo)
TTITLE4=Batuka
TTITLE5=Killers Who Are Partying
TTITLE6=Crave (Madonna and Swae Lee)
TTITLE7=Crazy
TTITLE8=Come Alive
TTITLE9=Extreme Occident
TTITLE10=Faz Gostoso (Featuring Anitta)
TTITLE11=Bitch I'm Loca (Featuring Maluma)
TTITLE12=I Don't Search I Find
TTITLE13=Looking For Mercy
TTITLE14=I Rise
EXTD=14.06.2019\n\nMARO\n
EXTT0=
EXTT1=
EXTT2=
EXTT3=
EXTT4=
EXTT5=
EXTT6=
EXTT7=
EXTT8=
EXTT9=
EXTT10=
EXTT11=
EXTT12=
EXTT13=
EXTT14=
PLAYORDER=
